<?xml version="1.0" encoding="utf-8"?>
<svg version="1.0" width="70px" height="70px" preserveAspectRatio="xMidYMid meet" xmlns="http://www.w3.org/2000/svg">
  <defs/>
  <g transform="matrix(0.019039, 0, 0, -0.019037, -292.246769, -3968.193087)" fill="#000000" stroke="none" style="transform-origin: 292.246px 3968.19px;">
    <path d="M1941 3959 c-146 -16 -421 -80 -421 -99 0 -4 33 -10 74 -13 352 -30&#10;780 -227 1171 -540 63 -51 115 -85 123 -82 30 11 250 64 317 75 39 7 128 15&#10;198 19 l129 6 -57 62 c-71 79 -210 196 -323 272 -348 234 -791 343 -1211 300z" style="fill: rgb(5, 25, 139);"/>
    <path d="M1325 3640 c-293 -53 -439 -261 -422 -600 7 -131 23 -212 69 -355 33&#10;-100 150 -347 208 -438 l31 -49 69 66 c342 322 892 680 1308 851 50 21 92 41&#10;92 45 0 17 -273 184 -435 266 -192 96 -395 170 -545 199 -101 20 -305 28 -375&#10;15z" style="fill: rgb(5, 25, 139);"/>
    <path d="M599 3148 c-398 -605 -409 -1372 -31 -1993 l37 -60 7 80 c18 214 144&#10;484 349 744 74 96 80 107 68 125 -169 263 -287 536 -340 786 -17 81 -23 140&#10;-23 257 -1 84 -2 153 -4 153 -1 0 -30 -42 -63 -92z" style="fill: rgb(5, 25, 139);"/>
    <path d="M3380 3173 c-84 -14 -233 -46 -292 -64 l-70 -20 114 -117 c122 -124&#10;243 -280 322 -413 59 -99 62 -109 38 -139 -32 -39 -59 -21 -147 102 -79 109&#10;-346 392 -446 472 l-47 37 -107 -46 c-310 -133 -669 -343 -963 -564 -120 -91&#10;-334 -275 -410 -353 l-42 -44 83 -104 c121 -153 298 -341 437 -466 123 -111&#10;324 -267 384 -299 l34 -18 123 68 c159 88 255 147 406 252 l121 85 -14 34&#10;c-37 88 2 212 84 269 39 27 51 30 121 30 68 0 83 -3 119 -28 85 -56 124 -166&#10;92 -262 -35 -105 -163 -173 -271 -143 -21 6 -40 -3 -115 -59 -110 -81 -294&#10;-205 -422 -284 l-96 -59 125 -59 c257 -123 492 -181 732 -181 l131 0 66 67&#10;c239 246 409 582 476 944 35 186 29 496 -12 699 -38 184 -145 447 -249 608&#10;l-40 62 -120 -1 c-66 -1 -131 -4 -145 -6z" style="fill: rgb(5, 25, 139);"/>
    <path d="M1096 1749 c-221 -295 -317 -577 -246 -724 38 -79 127 -133 256 -156&#10;95 -17 344 -6 465 20 162 35 470 134 469 150 -1 4 -42 34 -93 68 -198 132&#10;-524 435 -701 651 -37 45 -71 82 -75 82 -4 0 -38 -41 -75 -91z" style="fill: rgb(5, 25, 139);"/>
    <path d="M2090 875 c-340 -156 -663 -234 -919 -222 -64 3 -125 8 -136 12 -39&#10;13 50 -54 154 -116 401 -240 885 -316 1350 -213 145 33 257 72 396 139 105 51&#10;275 153 275 166 0 3 -46 9 -102 13 -230 15 -516 97 -774 222 -61 30 -115 54&#10;-120 53 -5 0 -61 -25 -124 -54z" style="fill: rgb(5, 25, 139);"/>
  </g>
</svg>