<?xml version="1.0" encoding="utf-8"?>
<svg width="70px" height="70px" viewBox="0 0 70 70" version="1.1" xmlns="http://www.w3.org/2000/svg">
  <defs/>
  <g id="surface1" style="transform-origin: 0px 37.5px;" transform="matrix(1.380408, 0, 0, 1.380408, -42.558713, -2.659253)">
    <path style=" stroke:none;fill-rule:nonzero;fill:rgb(90.980392%,12.941176%,15.294118%);fill-opacity:1;" d="M 69.636719 59.453125 L 69.636719 62.492188 L 70.605469 62.492188 L 70.605469 60.46875 L 74.140625 60.46875 L 74.140625 62.492188 L 75.109375 62.492188 L 75.109375 59.460938 L 69.636719 59.453125 M 70.5 58.472656 L 74.230469 58.472656 C 74.75 58.367188 75.132812 57.910156 75.242188 57.464844 L 69.488281 57.464844 C 69.59375 57.910156 69.984375 58.367188 70.5 58.472656 M 66.699219 62.496094 C 67.1875 62.289062 67.449219 61.925781 67.550781 61.503906 L 63.199219 61.503906 L 63.199219 57.464844 L 62.226562 57.46875 L 62.226562 62.496094 L 66.699219 62.496094 M 54.96875 58.457031 L 58.414062 58.457031 C 58.933594 58.304688 59.371094 57.910156 59.476562 57.46875 L 54.003906 57.46875 L 54.003906 60.4375 L 58.484375 60.4375 L 58.484375 61.480469 L 54.96875 61.484375 C 54.417969 61.636719 53.953125 62.007812 53.71875 62.5 L 54.003906 62.496094 L 59.445312 62.496094 L 59.445312 59.449219 L 54.96875 59.449219 L 54.96875 58.457031 M 46.460938 58.46875 L 50.191406 58.46875 C 50.710938 58.363281 51.097656 57.902344 51.203125 57.460938 L 45.449219 57.460938 C 45.554688 57.902344 45.949219 58.363281 46.460938 58.46875 M 46.460938 60.453125 L 50.191406 60.453125 C 50.710938 60.351562 51.097656 59.890625 51.203125 59.445312 L 45.449219 59.445312 C 45.554688 59.890625 45.949219 60.351562 46.460938 60.453125 M 46.460938 62.496094 L 50.191406 62.496094 C 50.710938 62.390625 51.097656 61.933594 51.203125 61.488281 L 45.449219 61.488281 C 45.554688 61.933594 45.949219 62.390625 46.460938 62.496094 M 36.757812 57.472656 C 36.871094 57.910156 37.246094 58.359375 37.765625 58.472656 L 39.335938 58.472656 L 39.417969 58.503906 L 39.417969 62.484375 L 40.398438 62.484375 L 40.398438 58.503906 L 40.488281 58.472656 L 42.058594 58.472656 C 42.585938 58.335938 42.953125 57.910156 43.066406 57.472656 L 43.066406 57.460938 L 36.757812 57.460938 L 36.757812 57.472656 "/>
    <path style=" stroke:none;fill-rule:nonzero;fill:rgb(90.980392%,12.941176%,15.294118%);fill-opacity:1;" d="M 56 47.527344 L 60.902344 19.851562 C 65.570312 19.851562 67.042969 20.363281 67.257812 22.464844 C 67.257812 22.464844 70.390625 21.289062 71.96875 18.90625 C 65.804688 16.039062 59.609375 15.910156 59.609375 15.910156 L 55.992188 20.332031 L 56 20.332031 L 52.386719 15.90625 C 52.386719 15.90625 46.191406 16.035156 40.027344 18.90625 C 41.605469 21.289062 44.738281 22.464844 44.738281 22.464844 C 44.953125 20.363281 46.425781 19.847656 51.0625 19.847656 L 56 47.527344 "/>
    <path style=" stroke:none;fill-rule:nonzero;fill:rgb(90.980392%,12.941176%,15.294118%);fill-opacity:1;" d="M 56 14.628906 C 60.984375 14.59375 66.6875 15.40625 72.527344 17.960938 C 73.308594 16.550781 73.511719 15.925781 73.511719 15.925781 C 67.125 13.390625 61.148438 12.523438 56 12.5 C 50.851562 12.523438 44.871094 13.390625 38.488281 15.925781 C 38.488281 15.925781 38.773438 16.695312 39.46875 17.960938 C 45.308594 15.40625 51.015625 14.59375 56 14.628906 "/>
  </g>
</svg>