<?xml version="1.0" encoding="UTF-8"?>
<svg xmlns="http://www.w3.org/2000/svg" xmlns:xlink="http://www.w3.org/1999/xlink" width="70px" height="70px" viewBox="0 0 70 70" version="1.1">
<g id="surface1">
<path style=" stroke:none;fill-rule:nonzero;fill:rgb(0.392157%,11.764706%,25.490196%);fill-opacity:1;" d="M 0.00390625 0 L 69.996094 0 L 69.996094 70 L 0.00390625 70 Z M 0.00390625 0 "/>
<path style=" stroke:none;fill-rule:nonzero;fill:rgb(95.294118%,76.470588%,0%);fill-opacity:1;" d="M 34.941406 37.285156 L 24.773438 24.097656 L 24.773438 33.695312 L 28.839844 33.695312 L 28.839844 43.164062 L 10.066406 43.164062 L 10.066406 33.691406 L 13.875 33.691406 L 13.875 18.945312 L 10.066406 18.945312 L 10.066406 9.472656 L 24.808594 9.472656 L 34.976562 22.777344 L 45.191406 9.472656 L 59.980469 9.472656 L 59.980469 18.945312 L 56.171875 18.945312 L 56.171875 33.691406 L 59.980469 33.691406 L 59.980469 43.160156 L 41.160156 43.160156 L 41.160156 33.691406 L 45.222656 33.691406 L 45.222656 24.09375 Z M 34.941406 37.285156 "/>
<path style=" stroke:none;fill-rule:nonzero;fill:rgb(100%,100%,100%);fill-opacity:1;" d="M 49.929688 60.53125 L 49.929688 60.191406 C 50.390625 60.164062 50.738281 60.128906 50.738281 59.78125 C 50.730469 59.652344 50.703125 59.523438 50.660156 59.402344 L 50.460938 58.765625 L 48.09375 58.765625 L 47.886719 59.3125 C 47.835938 59.4375 47.808594 59.570312 47.800781 59.707031 C 47.800781 60.140625 48.304688 60.179688 48.726562 60.199219 L 48.726562 60.539062 L 45.953125 60.539062 L 45.953125 60.199219 C 46.65625 60.171875 46.878906 60.039062 47.140625 59.375 L 48.953125 54.675781 L 48.851562 54.523438 C 49.328125 54.410156 49.78125 54.214844 50.179688 53.945312 C 50.3125 54.378906 50.332031 54.429688 50.484375 54.878906 L 51.96875 59.179688 C 52.230469 59.9375 52.355469 60.125 53.066406 60.199219 L 53.066406 60.539062 Z M 49.351562 55.453125 L 48.367188 58.070312 L 50.273438 58.070312 Z M 28.550781 59.125 C 28 60.125 26.886719 60.738281 25.691406 60.699219 C 23.671875 60.699219 22.363281 59.296875 22.363281 57.445312 C 22.363281 55.738281 23.472656 54.054688 25.738281 54.054688 C 26.546875 54.039062 27.335938 54.308594 27.945312 54.8125 L 28.410156 54.417969 L 28.445312 56.335938 L 28.144531 56.390625 C 28.007812 55.96875 27.757812 55.585938 27.425781 55.277344 C 27.066406 54.90625 26.570312 54.683594 26.039062 54.660156 C 24.828125 54.660156 23.871094 55.59375 23.871094 57.234375 C 23.871094 58.621094 24.65625 59.929688 26.210938 59.929688 C 27.03125 59.949219 27.792969 59.523438 28.171875 58.835938 Z M 29.046875 60.53125 L 29.046875 60.191406 C 29.808594 60.128906 29.820312 59.976562 29.820312 59.367188 C 29.820312 59.144531 29.820312 58.929688 29.820312 58.695312 L 29.820312 56.042969 C 29.820312 55.628906 29.820312 55.21875 29.792969 55.019531 C 29.753906 54.640625 29.558594 54.585938 29.039062 54.546875 L 29.039062 54.207031 L 31.90625 54.207031 L 31.90625 54.546875 C 31.347656 54.597656 31.140625 54.617188 31.074219 54.980469 C 31.023438 55.332031 31.003906 55.683594 31.015625 56.03125 L 31.015625 56.90625 C 31.597656 56.933594 32 56.949219 32.558594 56.949219 C 33.117188 56.949219 33.582031 56.949219 34.148438 56.90625 L 34.148438 55.839844 C 34.148438 54.683594 34.148438 54.640625 33.226562 54.5625 L 33.226562 54.222656 L 36.132812 54.222656 L 36.132812 54.5625 C 35.351562 54.652344 35.351562 54.660156 35.351562 55.871094 L 35.351562 58.542969 C 35.351562 58.789062 35.351562 59.589844 35.394531 59.777344 C 35.4375 60.105469 35.636719 60.171875 36.132812 60.210938 L 36.132812 60.550781 L 33.175781 60.550781 L 33.175781 60.210938 C 33.847656 60.136719 34.03125 60.125 34.097656 59.683594 C 34.097656 59.503906 34.097656 59.246094 34.097656 58.8125 L 34.097656 57.652344 C 33.566406 57.652344 33.128906 57.609375 32.574219 57.609375 C 32.019531 57.609375 31.546875 57.609375 30.964844 57.652344 L 30.964844 58.765625 C 30.964844 60.074219 30.992188 60.074219 31.855469 60.171875 L 31.855469 60.511719 Z M 36.691406 60.53125 L 36.691406 60.191406 C 37.347656 60.105469 37.480469 60.039062 37.492188 59.375 L 37.492188 56.003906 C 37.492188 54.695312 37.492188 54.652344 36.691406 54.546875 L 36.691406 54.207031 L 39.464844 54.207031 L 39.464844 54.546875 C 38.675781 54.617188 38.675781 54.652344 38.675781 56.003906 L 38.675781 58.558594 C 38.675781 58.78125 38.675781 59.492188 38.707031 59.679688 C 38.753906 60.0625 38.941406 60.15625 39.464844 60.191406 L 39.464844 60.53125 Z M 19.488281 60.53125 L 19.488281 60.191406 C 20.144531 60.105469 20.277344 60.039062 20.289062 59.375 L 20.289062 56.003906 C 20.289062 54.695312 20.289062 54.652344 19.488281 54.546875 L 19.488281 54.207031 L 22.261719 54.207031 L 22.261719 54.546875 C 21.476562 54.617188 21.476562 54.652344 21.476562 56.003906 L 21.476562 58.558594 C 21.476562 58.78125 21.476562 59.492188 21.503906 59.679688 C 21.550781 60.0625 21.738281 60.15625 22.261719 60.191406 L 22.261719 60.53125 Z M 15.898438 60.53125 L 15.898438 60.191406 C 16.742188 60.136719 16.742188 60.101562 16.753906 58.925781 L 16.753906 55.746094 L 14.410156 60.613281 L 13.761719 60.613281 L 11.609375 55.679688 L 11.558594 59.402344 C 11.558594 60.019531 11.636719 60.136719 12.347656 60.191406 L 12.347656 60.53125 L 10.039062 60.53125 L 10.039062 60.191406 C 10.578125 60.164062 10.785156 60.089844 10.824219 59.664062 C 10.824219 59.492188 10.867188 58.960938 10.882812 58.609375 L 10.976562 55.960938 C 10.976562 55.753906 10.976562 55.449219 10.976562 55.226562 C 10.976562 54.597656 10.839844 54.554688 10.246094 54.546875 L 10.246094 54.207031 L 12.375 54.207031 L 14.464844 59.003906 L 16.777344 54.207031 L 18.820312 54.207031 L 18.820312 54.582031 C 18.019531 54.625 18.011719 54.707031 18.019531 55.691406 L 18.019531 58.308594 C 18.019531 58.746094 18.019531 59.277344 18.0625 59.617188 C 18.097656 60.085938 18.289062 60.175781 18.820312 60.21875 L 18.820312 60.5625 Z M 52.902344 60.53125 L 52.902344 60.191406 C 53.457031 60.164062 53.664062 60.15625 53.738281 59.796875 C 53.835938 59.359375 53.863281 55.617188 53.871094 54.964844 C 53.632812 54.691406 53.277344 54.53125 52.902344 54.527344 L 52.902344 54.1875 L 54.898438 54.1875 C 55.457031 54.9375 55.582031 55.109375 56.570312 56.265625 L 58.417969 58.445312 L 58.417969 55.609375 C 58.417969 54.605469 58.382812 54.554688 57.320312 54.519531 L 57.320312 54.179688 L 59.980469 54.179688 L 59.980469 54.519531 C 59.25 54.519531 59.1875 54.671875 59.175781 55.703125 L 59.078125 60.585938 L 58.683594 60.585938 L 58.082031 59.875 C 57.78125 59.519531 57.476562 59.160156 57.15625 58.8125 L 54.507812 55.726562 L 54.507812 59.007812 C 54.507812 60.027344 54.582031 60.0625 55.609375 60.164062 L 55.609375 60.503906 Z M 46.285156 57.734375 L 46.285156 58.074219 C 45.675781 58.109375 45.675781 58.269531 45.664062 59.46875 L 45.664062 59.945312 C 44.90625 60.441406 44 60.703125 43.078125 60.691406 C 40.769531 60.691406 39.667969 59.042969 39.667969 57.386719 C 39.667969 55.355469 41.125 54.039062 42.945312 54.039062 C 43.789062 54.042969 44.609375 54.296875 45.292969 54.757812 L 45.644531 54.378906 L 45.695312 56.363281 L 45.421875 56.410156 C 45.257812 55.914062 44.96875 55.464844 44.578125 55.101562 C 44.21875 54.78125 43.742188 54.613281 43.25 54.628906 C 42.082031 54.628906 41.105469 55.5625 41.105469 57.382812 C 41.105469 58.832031 41.867188 60.078125 43.171875 60.078125 C 43.625 60.074219 44.050781 59.882812 44.335938 59.550781 C 44.457031 59.371094 44.503906 59.15625 44.476562 58.945312 C 44.441406 58.144531 44.328125 58.121094 43.582031 58.050781 L 43.582031 57.710938 Z M 46.285156 57.734375 "/>
<path style=" stroke:none;fill-rule:nonzero;fill:rgb(100%,100%,100%);fill-opacity:1;" d="M 56.382812 50.117188 C 56.429688 50.695312 56.214844 51.265625 55.792969 51.6875 C 55.371094 52.105469 54.777344 52.335938 54.164062 52.320312 C 53.539062 52.34375 52.933594 52.117188 52.492188 51.695312 C 52.054688 51.277344 51.820312 50.703125 51.851562 50.113281 C 51.851562 48.9375 52.859375 47.984375 54.105469 47.984375 C 55.351562 47.984375 56.363281 48.9375 56.363281 50.113281 Z M 54.167969 51.9375 C 54.53125 51.914062 54.863281 51.722656 55.046875 51.421875 C 55.328125 51 55.457031 50.503906 55.40625 50.003906 C 55.417969 49.519531 55.238281 49.042969 54.902344 48.675781 C 54.707031 48.453125 54.417969 48.324219 54.109375 48.328125 C 53.804688 48.335938 53.519531 48.46875 53.332031 48.695312 C 53.003906 49.074219 52.839844 49.554688 52.867188 50.039062 C 52.832031 50.539062 52.976562 51.03125 53.273438 51.445312 C 53.464844 51.738281 53.800781 51.925781 54.167969 51.9375 Z M 56.597656 51.984375 L 56.597656 52.222656 L 58.445312 52.222656 L 58.445312 51.988281 C 57.984375 51.945312 57.933594 51.90625 57.921875 51.449219 L 57.921875 50.257812 L 58.410156 50.257812 C 58.90625 50.257812 59.167969 50.300781 59.199219 50.769531 L 59.414062 50.769531 L 59.414062 49.386719 L 59.199219 49.386719 C 59.171875 49.820312 59.042969 49.878906 58.503906 49.878906 L 57.921875 49.878906 L 57.921875 48.429688 C 58.09375 48.410156 58.269531 48.402344 58.445312 48.410156 C 59.3125 48.410156 59.59375 48.410156 59.707031 49.058594 L 59.925781 49.058594 L 59.855469 48.035156 L 56.621094 48.035156 L 56.621094 48.261719 C 56.941406 48.289062 57.082031 48.308594 57.125 48.5 C 57.152344 48.753906 57.164062 49.003906 57.160156 49.257812 L 57.160156 50.730469 C 57.160156 50.84375 57.160156 51.34375 57.160156 51.445312 C 57.109375 51.902344 57.054688 51.941406 56.597656 51.984375 Z M 20.320312 52.1875 L 20.320312 51.964844 C 20.75 51.90625 20.839844 51.859375 20.847656 51.421875 L 20.847656 49.195312 C 20.847656 48.320312 20.847656 48.300781 20.320312 48.230469 L 20.320312 48.003906 L 22.167969 48.003906 L 22.167969 48.230469 C 21.621094 48.296875 21.621094 48.296875 21.621094 49.195312 L 21.621094 50.882812 C 21.621094 51.03125 21.621094 51.5 21.621094 51.625 C 21.652344 51.878906 21.777344 51.9375 22.125 51.964844 L 22.125 52.1875 Z M 38.703125 52.1875 L 38.703125 51.964844 C 39.132812 51.90625 39.21875 51.859375 39.230469 51.421875 L 39.230469 49.195312 C 39.230469 48.320312 39.230469 48.300781 38.703125 48.230469 L 38.703125 48.003906 L 40.550781 48.003906 L 40.550781 48.230469 C 40.027344 48.277344 40.027344 48.300781 40.027344 49.195312 L 40.027344 50.882812 C 40.027344 51.03125 40.027344 51.5 40.027344 51.625 C 40.0625 51.878906 40.1875 51.9375 40.53125 51.964844 L 40.53125 52.1875 Z M 15.152344 52.1875 L 15.152344 51.964844 C 15.519531 51.941406 15.65625 51.9375 15.703125 51.703125 C 15.75 51.464844 15.785156 48.941406 15.792969 48.507812 C 15.632812 48.332031 15.398438 48.230469 15.152344 48.230469 L 15.152344 48.003906 L 16.484375 48.003906 C 16.855469 48.5 16.945312 48.613281 17.589844 49.375 L 18.847656 50.824219 L 18.847656 48.953125 C 18.847656 48.289062 18.824219 48.25 18.121094 48.230469 L 18.121094 48.003906 L 19.863281 48.003906 L 19.863281 48.230469 C 19.402344 48.230469 19.335938 48.328125 19.332031 49.011719 L 19.265625 52.238281 L 19.003906 52.238281 L 18.609375 51.773438 C 18.40625 51.535156 18.207031 51.296875 18.003906 51.066406 L 16.253906 49.027344 L 16.253906 51.207031 C 16.253906 51.886719 16.304688 51.910156 16.984375 51.976562 L 16.984375 52.199219 Z M 35.261719 50.878906 L 35.488281 50.855469 C 35.734375 51.535156 36.140625 51.902344 36.808594 51.902344 C 37.269531 51.902344 37.695312 51.714844 37.695312 51.265625 C 37.695312 50.816406 37.230469 50.601562 36.996094 50.515625 C 36.761719 50.429688 36.632812 50.398438 36.457031 50.332031 C 35.855469 50.210938 35.421875 49.714844 35.40625 49.132812 C 35.40625 48.789062 35.558594 48.460938 35.828125 48.226562 C 36.097656 47.996094 36.457031 47.878906 36.820312 47.910156 C 37.183594 47.910156 37.535156 48.007812 37.835938 48.195312 L 38.109375 48.011719 L 38.253906 49.253906 L 38.03125 49.296875 C 37.984375 49.070312 37.878906 48.859375 37.726562 48.679688 C 37.523438 48.429688 37.207031 48.289062 36.871094 48.296875 C 36.410156 48.296875 36.125 48.507812 36.125 48.839844 C 36.125 49.335938 36.644531 49.503906 37.144531 49.660156 C 37.367188 49.71875 37.578125 49.796875 37.78125 49.898438 C 38.183594 50.121094 38.429688 50.53125 38.425781 50.96875 C 38.410156 51.339844 38.230469 51.691406 37.9375 51.9375 C 37.640625 52.183594 37.25 52.308594 36.859375 52.277344 C 36.449219 52.28125 36.050781 52.164062 35.710938 51.945312 L 35.34375 51.6875 Z M 42.097656 52.1875 L 42.097656 52.007812 C 42.507812 52.007812 42.621094 51.859375 42.621094 51.527344 L 42.621094 48.449219 L 42.066406 48.449219 C 41.566406 48.449219 41.234375 48.449219 41.191406 49.175781 L 40.960938 49.175781 L 41 48.003906 L 45.03125 48.003906 L 45.066406 49.175781 L 44.835938 49.175781 C 44.796875 48.429688 44.464844 48.449219 43.960938 48.449219 L 43.410156 48.449219 L 43.410156 51.527344 C 43.410156 51.859375 43.523438 52.003906 43.933594 52.007812 L 43.933594 52.1875 Z M 11.992188 48.003906 L 11.992188 48.230469 C 11.40625 48.269531 11.40625 48.289062 11.394531 49.175781 L 11.394531 50.160156 C 11.34375 50.625 11.445312 51.09375 11.691406 51.5 C 11.882812 51.734375 12.1875 51.867188 12.5 51.851562 C 13.039062 51.886719 13.519531 51.542969 13.632812 51.046875 C 13.742188 50.515625 13.785156 49.976562 13.761719 49.4375 C 13.761719 49.285156 13.761719 48.789062 13.761719 48.648438 C 13.734375 48.269531 13.53125 48.261719 13.132812 48.210938 L 13.132812 47.984375 L 14.820312 47.984375 L 14.820312 48.210938 C 14.410156 48.210938 14.320312 48.296875 14.292969 48.710938 C 14.292969 48.808594 14.238281 49.96875 14.234375 50.148438 C 14.230469 50.464844 14.191406 50.777344 14.128906 51.085938 C 13.910156 51.828125 13.167969 52.320312 12.355469 52.269531 C 11.945312 52.277344 11.542969 52.171875 11.191406 51.972656 C 10.535156 51.535156 10.527344 50.925781 10.527344 50.226562 L 10.527344 49.28125 C 10.527344 48.84375 10.527344 48.625 10.527344 48.523438 C 10.488281 48.261719 10.351562 48.207031 10.019531 48.191406 L 10.019531 47.964844 Z M 27.011719 48.003906 L 27.011719 48.230469 C 26.589844 48.289062 26.527344 48.398438 26.167969 49.230469 L 24.816406 52.28125 L 24.578125 52.28125 L 23.367188 49.167969 C 23.066406 48.375 23.023438 48.296875 22.582031 48.210938 L 22.582031 47.984375 L 24.683594 47.984375 L 24.683594 48.210938 C 24.328125 48.210938 24.09375 48.210938 24.09375 48.476562 C 24.113281 48.671875 24.164062 48.863281 24.246094 49.046875 L 25.015625 51.175781 L 25.941406 48.992188 C 26.003906 48.855469 26.046875 48.707031 26.070312 48.558594 C 26.070312 48.253906 25.757812 48.242188 25.480469 48.238281 L 25.480469 48.011719 Z M 46.664062 52.1875 L 46.664062 51.964844 C 47.007812 51.925781 47.128906 51.914062 47.230469 51.832031 C 47.332031 51.75 47.332031 51.632812 47.335938 51.175781 L 47.335938 50.441406 L 46.15625 48.695312 C 45.832031 48.261719 45.828125 48.234375 45.402344 48.210938 L 45.402344 47.980469 L 47.714844 47.980469 L 47.714844 48.210938 C 47.253906 48.210938 47.039062 48.210938 47.039062 48.433594 C 47.066406 48.59375 47.132812 48.742188 47.234375 48.871094 L 47.914062 49.917969 L 48.542969 48.875 C 48.632812 48.742188 48.691406 48.59375 48.71875 48.4375 C 48.71875 48.238281 48.53125 48.234375 48.226562 48.214844 L 48.226562 47.984375 L 49.960938 47.984375 L 49.960938 48.214844 C 49.5 48.214844 49.382812 48.351562 48.875 49.132812 L 48.183594 50.222656 L 48.183594 51.09375 C 48.183594 51.855469 48.183594 51.910156 48.847656 51.96875 L 48.847656 52.191406 Z M 30.582031 52.1875 C 30.582031 51.886719 30.636719 51.386719 30.675781 51.105469 L 30.460938 51.105469 C 30.308594 51.851562 29.863281 51.816406 29.222656 51.816406 C 28.582031 51.816406 28.515625 51.667969 28.515625 51.378906 L 28.515625 50.210938 L 28.976562 50.210938 C 29.523438 50.210938 29.679688 50.253906 29.679688 50.71875 L 29.894531 50.71875 L 29.894531 49.34375 L 29.679688 49.34375 C 29.636719 49.710938 29.554688 49.835938 28.980469 49.835938 L 28.519531 49.835938 L 28.519531 48.363281 L 29.066406 48.363281 C 29.820312 48.363281 30.085938 48.417969 30.1875 48.984375 L 30.402344 48.984375 L 30.402344 47.988281 L 27.246094 47.988281 L 27.246094 48.214844 C 27.5625 48.246094 27.707031 48.265625 27.75 48.457031 C 27.773438 48.707031 27.789062 48.960938 27.785156 49.214844 L 27.785156 50.683594 C 27.785156 50.800781 27.785156 51.300781 27.785156 51.40625 C 27.785156 51.839844 27.714844 51.902344 27.257812 51.941406 L 27.257812 52.171875 Z M 32.429688 49.945312 C 32.566406 49.96875 32.703125 49.980469 32.839844 49.984375 C 33.296875 50.007812 33.695312 49.699219 33.765625 49.277344 C 33.792969 48.792969 33.535156 48.375 32.714844 48.375 C 32.625 48.371094 32.535156 48.378906 32.449219 48.394531 Z M 32.429688 50.855469 C 32.429688 51.816406 32.429688 51.941406 32.972656 51.953125 L 32.972656 52.1875 L 31.121094 52.1875 L 31.121094 51.953125 C 31.585938 51.917969 31.648438 51.851562 31.652344 51.394531 C 31.652344 51.226562 31.652344 51.03125 31.652344 50.859375 L 31.652344 49.347656 C 31.660156 49.074219 31.652344 48.800781 31.625 48.53125 C 31.59375 48.300781 31.476562 48.253906 31.113281 48.230469 L 31.113281 48.003906 L 33.117188 48.003906 C 34.214844 48.003906 34.554688 48.492188 34.554688 49.070312 C 34.550781 49.578125 34.203125 50.027344 33.6875 50.179688 L 34.46875 51.488281 C 34.75 51.980469 34.902344 52.09375 35.257812 52.136719 L 35.257812 52.28125 C 35.167969 52.28125 35.074219 52.28125 34.972656 52.28125 C 34.136719 52.28125 33.792969 52.007812 33.441406 51.304688 L 33.199219 50.8125 C 32.933594 50.285156 32.847656 50.320312 32.425781 50.308594 Z M 32.429688 50.855469 "/>
</g>
</svg>
