<svg width="2107" height="2107" xmlns="http://www.w3.org/2000/svg" xmlns:xlink="http://www.w3.org/1999/xlink" xml:space="preserve" overflow="hidden"><defs><clipPath id="clip0"><rect x="2185" y="191" width="2107" height="2107"/></clipPath><linearGradient x1="2185" y1="191" x2="4292" y2="2298" gradientUnits="userSpaceOnUse" spreadMethod="reflect" id="fill1"><stop offset="0" stop-color="#800000"/><stop offset="0.23" stop-color="#141414"/><stop offset="1" stop-color="#003E78"/></linearGradient></defs><g clip-path="url(#clip0)" transform="translate(-2185 -191)"><path d="M2185 1244.5C2185 662.668 2656.67 191 3238.5 191 3820.33 191 4292 662.668 4292 1244.5 4292 1826.33 3820.33 2298 3238.5 2298 2656.67 2298 2185 1826.33 2185 1244.5Z" fill="url(#fill1)" fill-rule="evenodd"/><path d="M3310.17 589 3907.48 589C3915.86 589 3922.66 595.769 3922.66 604.12L3922.18 605.252 3923 607.213 3923 825.88C3923 834.231 3916.21 841 3907.83 841 3899.45 841 3892.65 834.231 3892.65 825.88L3892.65 821.831 3886.79 795.868 3873.68 765.628 3857.82 740.199 3837.13 715.457 3820.57 700.337 3792.99 678.344 3764.71 660.476 3710.22 635.734 3657.91 619.24 3310.17 619.24C3301.79 619.24 3295 612.47 3295 604.12 3295 595.769 3301.79 589 3310.17 589Z" fill="#FFFFFF" fill-rule="evenodd"/><path d="M15.1982 0 613.457 0C621.85 0 628.655 6.76952 628.655 15.1199L628.183 16.252 629 18.2135 629 236.88C629 245.231 622.195 252 613.802 252 605.408 252 598.604 245.231 598.604 236.88L598.604 232.831 592.732 206.868 579.606 176.628 563.717 151.199 542.992 126.457 526.412 111.337 498.779 89.3447 470.455 71.4757 415.879 46.734 363.488 30.2399 15.1982 30.2399C6.80458 30.2399 0 23.4704 0 15.1199 0 6.76952 6.80458 0 15.1982 0Z" fill="#FFFFFF" fill-rule="evenodd" transform="matrix(1 0 0 -1 3302 1864)"/><path d="M3712.85 1068C3721.22 1068 3728 1074.78 3728 1083.13L3728 1220 3728 1356.87C3728 1365.22 3721.22 1372 3712.85 1372 3704.49 1372 3697.71 1365.22 3697.71 1356.87L3697.71 1349.84 3692.89 1328.17 3683.25 1304.79 3668.79 1283.46 3652.96 1266.26 3635.06 1253.19 3614.4 1243.56 3594.44 1238.06 3568.96 1236.68 3549.84 1235.13 3310.15 1235.13C3301.78 1235.13 3295 1228.36 3295 1220 3295 1211.64 3301.78 1204.87 3310.15 1204.87L3554.35 1204.87 3569.19 1203.66 3594.67 1202.29 3614.63 1196.79 3635.29 1187.15 3653.19 1174.08 3669.02 1156.89 3683.48 1135.56 3693.12 1112.17 3697.71 1091.54 3697.71 1083.13C3697.71 1074.78 3704.49 1068 3712.85 1068Z" fill="#FFFFFF" fill-rule="evenodd"/><path d="M2637 602.5C2637 593.94 2643.94 587 2652.5 587L3218.5 587C3227.06 587 3234 593.94 3234 602.5L3234 602.5C3234 611.061 3227.06 618.001 3218.5 618.001L2652.5 618C2643.94 618 2637 611.06 2637 602.5Z" fill="#FFFFFF" fill-rule="evenodd"/><path d="M2672.21 589 2672.32 589.027 2664.14 605.801C2649.14 642.672 2648.95 679.497 2665.22 709.535 2679.87 736.569 2706.41 755.457 2740.08 764.521L2774.28 769.985 2779.97 771.352C2781.82 772.743 2783.23 774.902 2783.77 777.498 2784.31 780.094 2783.87 782.636 2782.73 784.647L2778.8 787.596 2764.56 791.917C2694.42 808.455 2628.97 790.97 2603.06 743.143 2581.91 704.101 2592.11 654.08 2624.99 610.028L2641.14 591.56 2643.25 590.378Z" fill="#FFFFFF" fill-rule="evenodd"/><path d="M3217.31 1260.45 2680.54 1641.41 2670.71 1694.38 2672.82 1725.64C2682.28 1806.98 2718.38 1873.93 2779.16 1910.26 2900.14 1982.57 3081.6 1911.29 3203.75 1743.5 3086.82 1939.14 2884.84 2033.68 2752.62 1954.66 2665.86 1902.8 2630.7 1789.08 2649.82 1661.73L2656.97 1627.47 2657.67 1627.68Z" fill="#FFFFFF" fill-rule="evenodd"/></g></svg>