<?xml version="1.0" encoding="utf-8"?>
<svg id="fd733c6b-e870-4685-a64f-75a151fe363d" data-name="Layer 1" width="70px" height="70px" viewBox="0 0 70 70" xmlns="http://www.w3.org/2000/svg">
  <defs>
    <style>.e3bbcf9c-dc6e-4dfe-8a1a-ab9e47dc2380{fill:#fff;}.a8101696-6d59-4e5d-9407-7c6aab7ff258{fill:#871f41;}.a6b2cf75-b835-4135-bb55-e1902b310df1{fill:#e77724;}</style>
  </defs>
  <rect class="e3bbcf9c-dc6e-4dfe-8a1a-ab9e47dc2380" width="70" height="70" style="fill: rgb(135, 31, 65);"/>
  <path class="a8101696-6d59-4e5d-9407-7c6aab7ff258" d="M 39.652 19.832 C 35.407 19.832 31.504 22.16 29.483 25.898 L 26.995 30.499 L 26.707 31.033 L 26.426 31.552 L 18.912 45.45 L 6.647 22.506 L 12.102 22.506 L 16.495 30.681 L 18.8 34.97 L 21.179 30.721 L 25.781 22.506 L 29.76 22.506 C 30.715 21.442 31.836 20.539 33.08 19.832 L 24.216 19.832 L 18.849 29.414 L 13.699 19.832 L 2.186 19.832 L 18.899 51.095 L 28.202 33.887 L 29.745 31.033 L 30.034 30.499 L 31.823 27.19 C 31.92 27.009 32.024 26.833 32.133 26.662 C 33.653 24.257 36.227 22.723 39.063 22.527 C 39.266 22.514 39.469 22.506 39.675 22.506 L 64.03 22.506 L 61.571 27.094 L 50.301 27.094 L 49.547 28.511 L 39.119 48.119 L 33.59 48.119 L 42.735 31.121 L 44.856 27.178 L 33.882 27.178 C 33.255 28.17 32.358 29.853 32.358 29.853 L 40.382 29.853 L 29.116 50.794 L 40.725 50.794 L 51.905 29.769 L 63.169 29.769 L 68.496 19.832 L 39.652 19.832 Z" style="fill: rgb(255, 255, 255);"/>
</svg>