<?xml version="1.0" encoding="UTF-8"?>
<svg xmlns="http://www.w3.org/2000/svg" xmlns:xlink="http://www.w3.org/1999/xlink" width="70px" height="58px" viewBox="0 0 70 58" version="1.1">
<g id="surface1">
<path style=" stroke:none;fill-rule:nonzero;fill:rgb(5.882353%,22.745098%,59.215686%);fill-opacity:1;" d="M 61.222656 28.949219 C 61.222656 44.832031 48.191406 57.902344 32.359375 57.902344 C 16.527344 57.902344 3.5 44.832031 3.5 28.949219 C 3.5 13.070312 16.222656 0 32.359375 0 C 47.886719 0 61.222656 13.070312 61.222656 28.949219 "/>
<path style=" stroke:none;fill-rule:nonzero;fill:rgb(100%,100%,100%);fill-opacity:1;" d="M 38.871094 44.1875 C 51.199219 49.28125 49.0625 36.410156 42.488281 26.554688 C 38.761719 20.972656 33.90625 16.320312 30.839844 14.074219 C 20.679688 6.628906 14.40625 11.144531 21.582031 25.832031 C 23.902344 30.578125 26.882812 33.78125 29.207031 36.804688 C 30.984375 39.109375 34.449219 40.265625 33.226562 41.359375 C 31.855469 42.589844 28.527344 37.148438 28.527344 37.148438 C 26.070312 34.171875 23.726562 31 21.3125 26.640625 C 15.796875 16.6875 16.59375 6.53125 26.578125 10.953125 C 35.046875 14.710938 43.140625 25.25 46.394531 32.734375 C 47.898438 36.1875 51.996094 49.859375 38.945312 44.332031 "/>
<path style=" stroke:none;fill-rule:nonzero;fill:rgb(96.862745%,25.490196%,3.921569%);fill-opacity:1;" d="M 0.527344 37.53125 C 5.949219 33.90625 11.09375 31.5625 19.847656 28.660156 C 32.144531 24.582031 41.402344 21.839844 52.757812 16.105469 C 57.84375 13.542969 66.664062 7.789062 69.816406 2.785156 C 68.875 4.722656 65.949219 8.488281 64.625 10.15625 C 49.214844 29.53125 16.390625 28.433594 0.742188 37.734375 "/>
<path style=" stroke:none;fill-rule:nonzero;fill:rgb(100%,100%,100%);fill-opacity:1;" d="M 8.394531 23.371094 C 13.359375 23.410156 12.875 23.363281 12.929688 23.421875 C 13.019531 23.421875 16.894531 30.125 16.894531 30.183594 C 16.894531 30.210938 16.867188 27.800781 16.867188 24.785156 C 16.867188 24.4375 15.914062 23.421875 15.941406 23.421875 C 17.359375 23.421875 19.210938 23.449219 19.210938 23.449219 C 18.515625 24.261719 18.378906 24.195312 18.371094 24.699219 C 18.351562 26.3125 18.332031 29.296875 18.371094 32.652344 C 18.375 33.152344 18.746094 33.347656 19.355469 34.21875 L 14.8125 34.21875 C 13.335938 31.75 10.632812 27.125 10.644531 27.136719 C 10.667969 27.15625 10.585938 30.039062 10.675781 32.359375 C 10.703125 33.128906 11.050781 33.375 11.6875 34.074219 C 11.6875 34.074219 12.421875 34.054688 8.128906 34.101562 C 9.429688 33.40625 9.257812 32.535156 9.257812 32.507812 C 9.210938 29.296875 9.246094 26.554688 9.246094 24.785156 C 9.246094 24.496094 9.226562 24.523438 8.332031 23.421875 M 23.917969 28.328125 C 24.335938 26.875 24.691406 25.574219 24.859375 24.726562 C 24.890625 24.582031 24.542969 24.058594 23.992188 23.539062 L 23.953125 23.457031 C 26.605469 23.464844 29.375 23.480469 29.375 23.480469 C 30.097656 25.25 31.746094 30.214844 32.992188 33.261719 C 33.320312 34.066406 33.886719 34.21875 33.886719 34.21875 C 31.632812 34.191406 27.441406 34.210938 27.464844 34.191406 C 28.59375 33.171875 28.449219 33.171875 27.957031 31.695312 L 24.425781 31.695312 C 23.703125 33.378906 24.652344 34.167969 24.773438 34.160156 C 23.96875 34.203125 21.246094 34.160156 21.246094 34.160156 C 22.71875 33.117188 22.632812 32.796875 22.632812 32.796875 C 23.039062 31.347656 23.507812 29.761719 23.917969 28.328125 L 25.367188 28.328125 L 24.746094 30.328125 L 27.550781 30.328125 L 25.988281 26.324219 L 25.367188 28.324219 L 23.917969 28.324219 M 48.167969 28.472656 C 48.582031 27.019531 48.9375 25.71875 49.109375 24.871094 C 49.136719 24.726562 48.789062 24.207031 48.238281 23.683594 L 48.199219 23.601562 C 50.851562 23.609375 53.621094 23.625 53.621094 23.625 C 54.34375 25.394531 55.992188 30.359375 57.238281 33.40625 C 57.566406 34.210938 58.132812 34.363281 58.132812 34.363281 C 55.878906 34.335938 51.691406 34.355469 51.710938 34.335938 C 52.839844 33.320312 52.695312 33.320312 52.203125 31.839844 L 48.675781 31.839844 C 47.949219 33.523438 48.898438 34.3125 49.019531 34.304688 C 48.21875 34.347656 45.492188 34.304688 45.492188 34.304688 C 46.964844 33.261719 46.878906 32.941406 46.878906 32.941406 C 47.285156 31.492188 47.753906 29.90625 48.167969 28.472656 L 49.613281 28.472656 C 49.304688 29.472656 48.992188 30.476562 48.992188 30.476562 L 51.796875 30.476562 L 50.234375 26.46875 C 50.234375 26.46875 49.925781 27.46875 49.613281 28.472656 L 48.167969 28.472656 M 43.601562 26.09375 C 43.542969 24.03125 43.601562 23.363281 43.601562 23.363281 C 42.703125 24.089844 43.15625 23.996094 40.910156 23.625 C 34.441406 22.550781 33.945312 28.621094 37.46875 29.980469 C 40.425781 31.125 41.472656 31.347656 41.027344 32.417969 C 40.882812 32.769531 38.191406 34.042969 35.414062 31.460938 L 35.472656 35.058594 C 35.820312 34.699219 36.773438 34.042969 36.773438 34.042969 C 36.800781 34.042969 39.785156 35.363281 42.472656 33.984375 C 46.609375 31.867188 44.546875 28.4375 40.128906 27.078125 C 36.453125 25.945312 39.925781 23.304688 43.574219 26.121094 M 32.765625 2.628906 C 32.765625 2.757812 32.660156 2.863281 32.53125 2.867188 C 32.402344 2.863281 32.296875 2.757812 32.296875 2.628906 C 32.296875 2.5 32.402344 2.394531 32.53125 2.394531 C 32.660156 2.394531 32.765625 2.5 32.765625 2.628906 M 34.398438 6.203125 C 34.398438 6.363281 34.265625 6.492188 34.105469 6.492188 C 33.949219 6.492188 33.820312 6.363281 33.816406 6.203125 C 33.816406 6.042969 33.949219 5.914062 34.105469 5.914062 C 34.265625 5.914062 34.398438 6.042969 34.398438 6.203125 M 38.625 12.042969 C 38.625 12.203125 38.496094 12.335938 38.335938 12.335938 C 38.175781 12.332031 38.046875 12.203125 38.046875 12.042969 C 38.046875 11.882812 38.167969 11.753906 38.328125 11.753906 C 38.488281 11.753906 38.625 11.882812 38.625 12.042969 M 31.828125 8.214844 C 31.828125 8.347656 31.722656 8.453125 31.589844 8.453125 C 31.460938 8.453125 31.355469 8.347656 31.355469 8.214844 C 31.355469 8.085938 31.460938 7.980469 31.589844 7.980469 C 31.722656 7.980469 31.828125 8.085938 31.828125 8.214844 M 34.359375 9.558594 C 34.359375 9.6875 34.253906 9.792969 34.125 9.792969 C 33.996094 9.792969 33.890625 9.6875 33.890625 9.558594 C 33.890625 9.429688 33.996094 9.324219 34.125 9.324219 C 34.253906 9.324219 34.359375 9.429688 34.359375 9.558594 M 31.066406 5.804688 C 31.066406 5.964844 30.9375 6.09375 30.777344 6.09375 C 30.621094 6.09375 30.488281 5.964844 30.488281 5.804688 C 30.488281 5.644531 30.621094 5.511719 30.777344 5.511719 C 30.9375 5.511719 31.066406 5.644531 31.066406 5.804688 M 27.234375 8.144531 C 27.234375 8.273438 27.128906 8.378906 27 8.378906 C 26.871094 8.378906 26.765625 8.273438 26.765625 8.144531 C 26.765625 8.015625 26.871094 7.90625 27 7.90625 C 27.128906 7.910156 27.234375 8.015625 27.234375 8.144531 M 27.921875 8.613281 C 27.917969 8.746094 27.816406 8.851562 27.683594 8.851562 C 27.554688 8.851562 27.449219 8.746094 27.449219 8.613281 C 27.457031 8.488281 27.558594 8.390625 27.683594 8.390625 C 27.8125 8.390625 27.914062 8.488281 27.921875 8.613281 M 28.609375 9.085938 C 28.609375 9.21875 28.503906 9.324219 28.375 9.324219 C 28.242188 9.324219 28.136719 9.21875 28.136719 9.085938 C 28.136719 8.957031 28.246094 8.851562 28.375 8.851562 C 28.503906 8.851562 28.609375 8.957031 28.609375 9.085938 M 27.5625 9.996094 C 27.558594 10.125 27.453125 10.230469 27.324219 10.230469 C 27.195312 10.230469 27.089844 10.125 27.089844 9.996094 C 27.089844 9.867188 27.195312 9.757812 27.324219 9.757812 C 27.453125 9.757812 27.5625 9.867188 27.5625 9.996094 M 22.097656 13.839844 C 22.097656 13.96875 21.992188 14.074219 21.863281 14.074219 C 21.734375 14.074219 21.628906 13.96875 21.628906 13.839844 C 21.628906 13.710938 21.734375 13.605469 21.863281 13.605469 C 21.992188 13.605469 22.097656 13.710938 22.097656 13.839844 M 23.109375 15.074219 C 23.109375 15.203125 23.003906 15.308594 22.875 15.308594 C 22.746094 15.308594 22.640625 15.203125 22.640625 15.074219 C 22.640625 14.945312 22.746094 14.839844 22.875 14.839844 C 23.003906 14.839844 23.109375 14.945312 23.109375 15.074219 M 22.304688 34.992188 C 22.304688 35.121094 22.199219 35.226562 22.070312 35.226562 C 21.941406 35.226562 21.835938 35.121094 21.835938 34.992188 C 21.835938 34.863281 21.941406 34.753906 22.070312 34.753906 C 22.199219 34.753906 22.304688 34.863281 22.304688 34.992188 M 22.449219 40.488281 C 22.449219 40.644531 22.320312 40.777344 22.160156 40.777344 C 22.003906 40.777344 21.871094 40.648438 21.871094 40.488281 C 21.871094 40.328125 22.003906 40.195312 22.160156 40.195312 C 22.320312 40.199219 22.449219 40.328125 22.449219 40.488281 M 19.339844 43.300781 C 19.339844 43.429688 19.234375 43.535156 19.105469 43.535156 C 18.976562 43.535156 18.871094 43.429688 18.871094 43.300781 C 18.871094 43.171875 18.976562 43.066406 19.105469 43.066406 C 19.234375 43.066406 19.339844 43.171875 19.339844 43.300781 M 15.613281 44.441406 C 15.613281 44.601562 15.484375 44.730469 15.324219 44.730469 C 15.164062 44.730469 15.035156 44.601562 15.035156 44.441406 C 15.035156 44.28125 15.167969 44.152344 15.324219 44.152344 C 15.484375 44.152344 15.613281 44.28125 15.613281 44.441406 M 14.855469 41.902344 C 14.855469 42.0625 14.726562 42.191406 14.566406 42.191406 C 14.40625 42.191406 14.277344 42.0625 14.277344 41.902344 C 14.277344 41.742188 14.40625 41.613281 14.566406 41.609375 C 14.726562 41.613281 14.855469 41.742188 14.855469 41.902344 M 14.421875 43.515625 C 14.421875 43.648438 14.316406 43.753906 14.1875 43.753906 C 14.058594 43.753906 13.953125 43.648438 13.953125 43.515625 C 13.953125 43.386719 14.058594 43.28125 14.1875 43.28125 C 14.316406 43.28125 14.421875 43.386719 14.421875 43.515625 M 11.636719 42.175781 C 11.636719 42.304688 11.53125 42.410156 11.402344 42.410156 C 11.273438 42.410156 11.167969 42.304688 11.167969 42.175781 C 11.167969 42.046875 11.273438 41.941406 11.402344 41.941406 C 11.53125 41.941406 11.636719 42.046875 11.636719 42.175781 M 21.367188 46.710938 C 21.367188 46.839844 21.269531 46.945312 21.140625 46.945312 C 21.011719 46.945312 20.894531 46.839844 20.894531 46.710938 C 20.894531 46.582031 21 46.472656 21.128906 46.472656 C 21.257812 46.472656 21.367188 46.582031 21.367188 46.710938 M 24.296875 44.550781 C 24.296875 44.710938 24.175781 44.84375 24.015625 44.84375 C 23.855469 44.84375 23.71875 44.710938 23.71875 44.550781 C 23.71875 44.394531 23.847656 44.261719 24.007812 44.261719 C 24.164062 44.261719 24.292969 44.390625 24.296875 44.550781 M 24.632812 47.328125 C 24.632812 47.457031 24.515625 47.5625 24.386719 47.5625 C 24.257812 47.5625 24.152344 47.457031 24.152344 47.328125 C 24.152344 47.199219 24.257812 47.089844 24.386719 47.089844 C 24.515625 47.089844 24.632812 47.195312 24.632812 47.328125 M 36.671875 44.675781 C 36.671875 44.808594 36.566406 44.910156 36.4375 44.914062 C 36.308594 44.914062 36.203125 44.808594 36.203125 44.675781 C 36.203125 44.546875 36.308594 44.441406 36.4375 44.441406 C 36.566406 44.441406 36.671875 44.546875 36.671875 44.675781 M 31.066406 46.671875 C 31.066406 46.800781 30.960938 46.90625 30.832031 46.910156 C 30.703125 46.90625 30.597656 46.800781 30.597656 46.671875 C 30.597656 46.542969 30.703125 46.4375 30.832031 46.4375 C 30.960938 46.4375 31.066406 46.542969 31.066406 46.671875 M 46.148438 49.539062 C 46.148438 49.671875 46.042969 49.777344 45.914062 49.777344 C 45.785156 49.777344 45.679688 49.671875 45.679688 49.539062 C 45.679688 49.410156 45.785156 49.304688 45.914062 49.304688 C 46.042969 49.304688 46.148438 49.410156 46.148438 49.539062 M 47.378906 38.382812 C 47.378906 38.542969 47.25 38.671875 47.089844 38.675781 C 46.929688 38.671875 46.800781 38.542969 46.800781 38.382812 C 46.800781 38.222656 46.929688 38.09375 47.089844 38.09375 C 47.25 38.09375 47.378906 38.222656 47.378906 38.382812 M 45.066406 39.960938 C 45.066406 40.089844 44.960938 40.195312 44.828125 40.195312 C 44.703125 40.195312 44.59375 40.089844 44.59375 39.960938 C 44.59375 39.832031 44.703125 39.726562 44.828125 39.726562 C 44.960938 39.726562 45.066406 39.832031 45.066406 39.960938 M 47.34375 40.414062 C 47.34375 40.574219 47.214844 40.707031 47.054688 40.707031 C 46.894531 40.707031 46.765625 40.574219 46.765625 40.414062 C 46.765625 40.257812 46.894531 40.125 47.054688 40.125 C 47.214844 40.125 47.34375 40.257812 47.34375 40.414062 M 45.066406 43.226562 C 45.066406 43.355469 44.960938 43.460938 44.828125 43.460938 C 44.699219 43.460938 44.597656 43.355469 44.59375 43.226562 C 44.59375 43.097656 44.703125 42.992188 44.828125 42.992188 C 44.960938 42.992188 45.066406 43.097656 45.066406 43.226562 M 50.960938 36.804688 C 50.960938 36.933594 50.851562 37.042969 50.722656 37.042969 C 50.59375 37.039062 50.492188 36.933594 50.488281 36.804688 C 50.488281 36.675781 50.59375 36.570312 50.722656 36.570312 C 50.851562 36.570312 50.960938 36.675781 50.960938 36.804688 M 51.53125 38.238281 C 51.53125 38.398438 51.410156 38.527344 51.25 38.527344 C 51.089844 38.527344 50.949219 38.398438 50.949219 38.238281 C 50.949219 38.078125 51.082031 37.949219 51.238281 37.949219 C 51.398438 37.949219 51.53125 38.078125 51.53125 38.238281 M 55.589844 39.945312 C 55.589844 40.101562 55.460938 40.234375 55.300781 40.234375 C 55.140625 40.234375 55.011719 40.105469 55.011719 39.945312 C 55.011719 39.785156 55.140625 39.652344 55.300781 39.652344 C 55.460938 39.652344 55.589844 39.785156 55.589844 39.945312 M 51.464844 42.972656 C 51.464844 43.105469 51.359375 43.210938 51.230469 43.210938 C 51.101562 43.210938 50.996094 43.105469 50.996094 42.972656 C 50.996094 42.84375 51.101562 42.738281 51.230469 42.738281 C 51.359375 42.738281 51.464844 42.84375 51.464844 42.972656 M 54.070312 40.507812 C 54.070312 40.636719 53.964844 40.742188 53.835938 40.742188 C 53.707031 40.742188 53.601562 40.636719 53.601562 40.507812 C 53.601562 40.378906 53.707031 40.269531 53.835938 40.269531 C 53.964844 40.269531 54.070312 40.378906 54.070312 40.507812 M 53.589844 44.316406 C 53.589844 44.445312 53.484375 44.550781 53.355469 44.550781 C 53.226562 44.550781 53.121094 44.445312 53.121094 44.316406 C 53.121094 44.1875 53.226562 44.078125 53.355469 44.078125 C 53.484375 44.078125 53.589844 44.1875 53.589844 44.316406 M 54.695312 37.984375 C 54.695312 38.183594 54.53125 38.347656 54.332031 38.347656 C 54.132812 38.347656 53.972656 38.183594 53.972656 37.984375 C 53.972656 37.785156 54.132812 37.621094 54.332031 37.621094 C 54.53125 37.621094 54.695312 37.785156 54.695312 37.984375 "/>
<path style=" stroke:none;fill-rule:nonzero;fill:rgb(100%,100%,100%);fill-opacity:1;" d="M 54.332031 36.878906 L 54.222656 37.875 L 53.238281 37.984375 L 54.234375 38.09375 L 54.339844 39.128906 L 54.449219 38.09375 L 55.425781 37.964844 L 54.441406 37.875 L 54.332031 36.878906 M 52.160156 44.296875 C 52.160156 44.496094 51.996094 44.660156 51.800781 44.660156 C 51.601562 44.660156 51.4375 44.496094 51.4375 44.296875 C 51.4375 44.097656 51.601562 43.933594 51.800781 43.933594 C 52 43.933594 52.160156 44.097656 52.160156 44.296875 "/>
<path style=" stroke:none;fill-rule:nonzero;fill:rgb(100%,100%,100%);fill-opacity:1;" d="M 51.800781 43.191406 L 51.691406 44.1875 L 50.707031 44.296875 L 51.703125 44.40625 L 51.8125 45.4375 L 51.917969 44.40625 L 52.894531 44.277344 L 51.910156 44.1875 L 51.800781 43.191406 M 25.183594 14.328125 C 25.183594 14.527344 25.019531 14.691406 24.820312 14.691406 C 24.621094 14.691406 24.460938 14.53125 24.457031 14.328125 C 24.457031 14.128906 24.621094 13.964844 24.820312 13.964844 C 25.019531 13.964844 25.183594 14.128906 25.183594 14.328125 "/>
<path style=" stroke:none;fill-rule:nonzero;fill:rgb(100%,100%,100%);fill-opacity:1;" d="M 24.820312 13.222656 L 24.710938 14.21875 L 23.726562 14.328125 L 24.71875 14.4375 L 24.828125 15.472656 L 24.9375 14.4375 L 25.914062 14.3125 L 24.925781 14.21875 L 24.820312 13.222656 M 38.636719 5.550781 C 38.636719 5.75 38.472656 5.914062 38.273438 5.914062 C 38.074219 5.914062 37.914062 5.75 37.914062 5.550781 C 37.914062 5.351562 38.074219 5.1875 38.273438 5.1875 C 38.472656 5.1875 38.636719 5.351562 38.636719 5.550781 "/>
<path style=" stroke:none;fill-rule:nonzero;fill:rgb(100%,100%,100%);fill-opacity:1;" d="M 38.273438 4.441406 L 38.164062 5.441406 L 37.179688 5.550781 L 38.175781 5.660156 L 38.28125 6.691406 L 38.390625 5.660156 L 39.367188 5.53125 L 38.382812 5.441406 L 38.273438 4.441406 M 22.277344 50.105469 C 22.277344 50.304688 22.117188 50.464844 21.917969 50.464844 C 21.71875 50.464844 21.554688 50.304688 21.554688 50.105469 C 21.554688 49.90625 21.71875 49.742188 21.917969 49.742188 C 22.117188 49.742188 22.277344 49.90625 22.277344 50.105469 "/>
<path style=" stroke:none;fill-rule:nonzero;fill:rgb(100%,100%,100%);fill-opacity:1;" d="M 21.925781 48.996094 L 21.816406 49.992188 L 20.832031 50.101562 L 21.828125 50.210938 L 21.933594 51.246094 L 22.042969 50.210938 L 23.019531 50.082031 L 22.035156 49.992188 L 21.925781 48.996094 "/>
<path style=" stroke:none;fill-rule:nonzero;fill:rgb(96.862745%,25.490196%,3.921569%);fill-opacity:1;" d="M 69.816406 2.789062 C 65.417969 15.890625 47.796875 26.007812 32.964844 35.664062 C 24.015625 41.492188 15.132812 48.203125 9.015625 53.910156 C 7.40625 55.414062 9.34375 53.347656 8.726562 53.984375 C 17.261719 44.113281 27.082031 38.238281 32.507812 34.539062 C 41.683594 28.277344 46.902344 26.699219 62.730469 12.058594 "/>
<path style=" stroke:none;fill-rule:nonzero;fill:rgb(93.333333%,16.078431%,23.921569%);fill-opacity:1;" d="M 4.195312 35.246094 C 2.617188 36.023438 1.199219 36.789062 0 37.539062 L 0.730469 37.804688 C 1.78125 37.15625 3.039062 36.476562 4.367188 35.882812 M 12.535156 49.910156 C 11.03125 51.226562 9.554688 52.570312 8.101562 53.941406 L 8.035156 54.941406 C 9.40625 53.523438 11.089844 51.992188 13.03125 50.367188 "/>
<path style=" stroke:none;fill-rule:nonzero;fill:rgb(100%,100%,100%);fill-opacity:1;" d="M 38.871094 44.1875 C 51.199219 49.28125 49.0625 36.410156 42.488281 26.554688 C 38.761719 20.972656 34.167969 16.542969 30.839844 14.074219 C 26.953125 11.195312 26.574219 10.957031 26.574219 10.957031 C 35.253906 15.089844 43.136719 25.25 46.390625 32.734375 C 47.894531 36.191406 51.992188 49.859375 38.941406 44.332031 "/>
</g>
</svg>
